<svg viewBox="0 0 24 24" xmlns="http://www.w3.org/2000/svg" xmlns:xlink="http://www.w3.org/1999/xlink" id="weather-icon-1101" data-reactroot=""><defs><radialGradient cx="55.214%" cy="105.743%" fx="55.214%" fy="105.743%" r="135.163%" gradientTransform="matrix(0 1 -.73696 0 1.331 .505)" id="svg__3993836335__e"><stop stop-color="#FBC057" offset="0%"></stop><stop stop-color="#F1EE59" offset="100%"></stop></radialGradient><radialGradient cx="50%" cy="50%" fx="50%" fy="50%" r="48.157%" gradientTransform="matrix(0 1 -.9961 0 .998 0)" id="svg__3993836335__f"><stop stop-color="#F5A235" offset="0%"></stop><stop stop-color="#F5A235" stop-opacity="0" offset="100%"></stop></radialGradient><radialGradient cx="50%" cy="50%" fx="50%" fy="50%" r="50%" id="svg__3993836335__h"><stop stop-color="#FFF504" offset="0%"></stop><stop stop-color="#FFF504" stop-opacity="0" offset="100%"></stop></radialGradient><linearGradient x1="50%" y1="0%" x2="50%" y2="100%" id="svg__3993836335__a"><stop stop-color="#EFEFEF" offset="0%"></stop><stop stop-color="#D9D9D9" offset="100%"></stop></linearGradient><linearGradient x1="50%" y1="50%" x2="100%" y2="50%" id="svg__3993836335__c"><stop stop-opacity="0" offset="0%"></stop><stop stop-opacity="0.03" offset="100%"></stop></linearGradient><path d="M12.828 8a7.636 7.636 0 00-6.14 3.053 5.825 5.825 0 00-1.033-.091C2.532 10.962 0 13.432 0 16.48c0 2.912 2.311 5.298 5.241 5.504V22h14.345C22.024 22 24 20.071 24 17.692c0-2.196-1.685-4.01-3.862-4.274C19.248 10.293 16.313 8 12.828 8z" id="svg__3993836335__b"></path><path d="M4.793 0a5 5 0 013.96 8.053A8.466 8.466 0 006.3 5.2a8.672 8.672 0 00-5.18-1.7c-.38 0-.754.024-1.122.071A5.005 5.005 0 014.793 0z" id="svg__3993836335__d"></path></defs><g fill="none" fill-rule="evenodd"><path d="M0 0h24v24H0z"></path><use fill="url(#svg__3993836335__a)" xlink:href="#svg__3993836335__b"></use><use fill="url(#svg__3993836335__c)" xlink:href="#svg__3993836335__b"></use><g><g transform="translate(11.707 3.5)"><mask id="svg__3993836335__g" fill="#fff"><use xlink:href="#svg__3993836335__d"></use></mask><use fill="url(#svg__3993836335__e)" fill-rule="nonzero" xlink:href="#svg__3993836335__d"></use><ellipse fill="url(#svg__3993836335__f)" mask="url(#svg__3993836335__g)" cx="5.82" cy="15.989" rx="9.777" ry="9.739"></ellipse><ellipse fill="url(#svg__3993836335__f)" mask="url(#svg__3993836335__g)" cx="-2.93" cy="4.739" rx="9.777" ry="9.739"></ellipse><circle fill="url(#svg__3993836335__h)" opacity="0.5" mask="url(#svg__3993836335__g)" cx="5.626" cy="2.083" r="5"></circle></g><path d="M23.531 8.031a.469.469 0 010 .938h-.937a.469.469 0 110-.938h.937zM16.5 1c.259 0 .469.21.469.469v.937a.469.469 0 01-.938 0V1.47c0-.26.21-.469.469-.469zm-3.977 2.86a.469.469 0 01-.663.663l-.663-.663a.469.469 0 01.663-.663l.663.663zm9.28-.663a.469.469 0 010 .663l-.663.663a.469.469 0 11-.663-.663l.663-.663a.469.469 0 01.663 0z" fill="#F5C23E"></path></g></g></svg>