<svg viewBox="0 0 24 24" xmlns="http://www.w3.org/2000/svg" xmlns:xlink="http://www.w3.org/1999/xlink" id="weather-icon-1001" data-reactroot=""><defs><linearGradient x1="50%" y1="0%" x2="50%" y2="100%" id="svg__2329262705__a"><stop stop-color="#E3E3E3" offset="0%"></stop><stop stop-color="#B9B9B9" offset="100%"></stop></linearGradient><linearGradient x1="50%" y1="0%" x2="50%" y2="100%" id="svg__2329262705__b"><stop stop-color="#EFEFEF" offset="0%"></stop><stop stop-color="#D9D9D9" offset="100%"></stop></linearGradient><linearGradient x1="50%" y1="50%" x2="100%" y2="50%" id="svg__2329262705__d"><stop stop-opacity="0" offset="0%"></stop><stop stop-opacity="0.03" offset="100%"></stop></linearGradient><path d="M12.828 6a7.636 7.636 0 00-6.14 3.053 5.825 5.825 0 00-1.033-.091C2.532 8.962 0 11.432 0 14.48c0 2.912 2.311 5.298 5.241 5.504V20h14.345C22.024 20 24 18.071 24 15.692c0-2.196-1.685-4.01-3.862-4.274C19.248 8.293 16.313 6 12.828 6z" id="svg__2329262705__c"></path></defs><g fill="none" fill-rule="evenodd"><path d="M0 0h24v24H0z"></path><path d="M16.522 2.2a3.516 3.516 0 013.483 2.987 2.92 2.92 0 013.844 2.767 2.917 2.917 0 01-2.214 2.825 5.295 5.295 0 00-.732-.236A8.439 8.439 0 0018.007 6.7a8.672 8.672 0 00-5.18-1.7l.247.004.022-.108A3.517 3.517 0 0116.522 2.2z" fill="url(#svg__2329262705__a)"></path><use fill="url(#svg__2329262705__b)" xlink:href="#svg__2329262705__c"></use><use fill="url(#svg__2329262705__d)" xlink:href="#svg__2329262705__c"></use></g></svg>